<svg xmlns="http://www.w3.org/2000/svg" xmlns:xlink="http://www.w3.org/1999/xlink" width="500" zoomAndPan="magnify" viewBox="0 0 375 374.999991" height="500" preserveAspectRatio="xMidYMid meet" version="1.2"><defs><clipPath id="19d44626bf"><path d="M 90 224 L 192 224 L 192 297.957031 L 90 297.957031 Z M 90 224 "/></clipPath><clipPath id="c63d59fb3a"><path d="M 66.90625 76.707031 L 308.40625 76.707031 L 308.40625 261 L 66.90625 261 Z M 66.90625 76.707031 "/></clipPath></defs><g id="dbce4ecdb0"><g clip-rule="nonzero" clip-path="url(#19d44626bf)"><path style=" stroke:none;fill-rule:nonzero;fill:#1c6434;fill-opacity:1;" d="M 90.417969 224.253906 C 102.304688 266.660156 141.394531 297.855469 187.65625 297.855469 C 188.855469 297.855469 190.054688 297.832031 191.242188 297.792969 C 179.296875 292.777344 166.9375 285.613281 154.503906 275.621094 C 127.894531 254.230469 107.785156 236.035156 90.417969 224.253906 "/></g><path style=" stroke:none;fill-rule:nonzero;fill:#27963c;fill-opacity:1;" d="M 278.320312 241.433594 C 255.558594 250.757812 221.308594 247.367188 179.808594 226.902344 C 165.976562 220.078125 138.058594 199.300781 87.273438 207.84375 C 106.699219 218.925781 129 239.664062 160.296875 264.816406 C 161.765625 266 163.234375 267.140625 164.703125 268.246094 C 202.234375 296.472656 256.464844 284.398438 277.738281 242.597656 C 277.933594 242.210938 278.128906 241.824219 278.320312 241.433594 "/><path style=" stroke:none;fill-rule:nonzero;fill:#80cc28;fill-opacity:1;" d="M 183.675781 219.035156 C 219.089844 234.171875 248.84375 237.773438 270.640625 232.484375 C 252.375 232.171875 230.675781 227.265625 206.277344 216.902344 C 192.828125 211.1875 166.042969 193.679688 120.5625 201.539062 C 152.605469 201.609375 172.632812 214.316406 183.675781 219.035156 "/><g clip-rule="nonzero" clip-path="url(#c63d59fb3a)"><path style=" stroke:none;fill-rule:nonzero;fill:#f68712;fill-opacity:1;" d="M 187.65625 92.628906 C 251.453125 92.628906 303.167969 144.199219 303.167969 207.816406 C 303.167969 226.742188 298.59375 244.59375 290.484375 260.347656 C 301.847656 241.984375 308.40625 220.351562 308.40625 197.191406 C 308.40625 130.691406 254.347656 76.78125 187.65625 76.78125 C 120.96875 76.78125 66.90625 130.691406 66.90625 197.191406 C 66.90625 220.351562 73.46875 241.984375 84.832031 260.347656 C 76.722656 244.59375 72.148438 226.742188 72.148438 207.816406 C 72.148438 144.199219 123.863281 92.628906 187.65625 92.628906 "/></g><path style=" stroke:none;fill-rule:nonzero;fill:#e7a811;fill-opacity:1;" d="M 266.125 140.335938 C 261.417969 147.109375 256.417969 149.296875 251.929688 151.84375 C 247.914062 154.121094 244.304688 158.328125 247.027344 165.933594 C 265.578125 162.433594 266.125 140.335938 266.125 140.335938 "/><path style=" stroke:none;fill-rule:nonzero;fill:#e7a811;fill-opacity:1;" d="M 269.15625 155.707031 C 265.136719 162.5 257.980469 166.023438 252.816406 168.957031 C 248.195312 171.574219 244.035156 176.421875 247.167969 185.179688 C 269.15625 183.160156 269.15625 155.707031 269.15625 155.707031 "/><path style=" stroke:none;fill-rule:nonzero;fill:#e7a811;fill-opacity:1;" d="M 254.910156 188.511719 C 249.171875 191.699219 244.050781 197.695312 247.632812 208.363281 C 250.265625 201.800781 255.242188 198.0625 255.242188 198.0625 C 251.585938 202.480469 247.003906 211.011719 248.855469 224.253906 C 249.195312 215.566406 251.183594 209.230469 252.230469 209.164062 C 259.855469 208.6875 264.257812 203.148438 267.257812 198.0625 C 272.300781 189.515625 275.4375 171.867188 275.4375 171.867188 C 275.4375 171.867188 267.175781 181.707031 254.910156 188.511719 "/><path style=" stroke:none;fill-rule:nonzero;fill:#e7a811;fill-opacity:1;" d="M 249.949219 139.753906 C 248.4375 133.964844 244.644531 124.402344 244.644531 124.402344 L 244.644531 154.472656 C 250.621094 150.746094 251.078125 144.066406 249.949219 139.753906 "/><path style=" stroke:none;fill-rule:nonzero;fill:#c3921c;fill-opacity:1;" d="M 223.164062 140.335938 C 227.871094 147.109375 232.871094 149.296875 237.355469 151.84375 C 241.371094 154.121094 244.984375 158.328125 242.261719 165.933594 C 223.710938 162.433594 223.164062 140.335938 223.164062 140.335938 "/><path style=" stroke:none;fill-rule:nonzero;fill:#c3921c;fill-opacity:1;" d="M 220.132812 155.707031 C 224.152344 162.5 231.308594 166.023438 236.472656 168.957031 C 241.09375 171.574219 245.25 176.421875 242.117188 185.179688 C 220.132812 183.160156 220.132812 155.707031 220.132812 155.707031 "/><path style=" stroke:none;fill-rule:nonzero;fill:#c3921c;fill-opacity:1;" d="M 239.339844 139.753906 C 240.851562 133.964844 244.644531 124.402344 244.644531 124.402344 L 244.644531 154.472656 C 238.664062 150.746094 238.210938 144.066406 239.339844 139.753906 "/><path style=" stroke:none;fill-rule:nonzero;fill:#c3921c;fill-opacity:1;" d="M 234.378906 188.511719 C 240.117188 191.699219 245.238281 197.695312 241.65625 208.363281 C 239.023438 201.800781 234.046875 198.0625 234.046875 198.0625 C 237.699219 202.480469 242.285156 211.011719 240.4375 224.253906 C 240.09375 215.566406 238.101562 209.230469 237.058594 209.164062 C 229.433594 208.6875 225.03125 203.148438 222.03125 198.0625 C 216.992188 189.515625 213.847656 171.867188 213.847656 171.867188 C 213.847656 171.867188 222.113281 181.707031 234.378906 188.511719 "/><path style=" stroke:none;fill-rule:nonzero;fill:#e7a811;fill-opacity:1;" d="M 201.71875 140.277344 C 198.15625 145.402344 194.371094 147.058594 190.980469 148.984375 C 187.941406 150.707031 185.207031 153.894531 187.269531 159.648438 C 201.304688 157 201.71875 140.277344 201.71875 140.277344 "/><path style=" stroke:none;fill-rule:nonzero;fill:#e7a811;fill-opacity:1;" d="M 204.011719 151.910156 C 200.96875 157.046875 195.554688 159.714844 191.648438 161.933594 C 188.152344 163.917969 185.003906 167.582031 187.375 174.207031 C 204.011719 172.679688 204.011719 151.910156 204.011719 151.910156 "/><path style=" stroke:none;fill-rule:nonzero;fill:#e7a811;fill-opacity:1;" d="M 193.234375 176.726562 C 188.890625 179.140625 185.015625 183.679688 187.726562 191.746094 C 189.71875 186.78125 193.484375 183.957031 193.484375 183.957031 C 190.71875 187.296875 187.25 193.753906 188.652344 203.769531 C 188.910156 197.199219 190.414062 192.402344 191.203125 192.355469 C 196.972656 191.996094 200.308594 187.800781 202.574219 183.957031 C 206.390625 177.488281 208.765625 164.136719 208.765625 164.136719 C 208.765625 164.136719 202.511719 171.578125 193.234375 176.726562 "/><path style=" stroke:none;fill-rule:nonzero;fill:#e7a811;fill-opacity:1;" d="M 189.480469 139.839844 C 188.335938 135.457031 185.464844 128.222656 185.464844 128.222656 L 185.464844 150.976562 C 189.988281 148.15625 190.332031 143.101562 189.480469 139.839844 "/><path style=" stroke:none;fill-rule:nonzero;fill:#c3921c;fill-opacity:1;" d="M 169.214844 140.277344 C 172.773438 145.402344 176.558594 147.058594 179.953125 148.984375 C 182.988281 150.707031 185.722656 153.894531 183.664062 159.648438 C 169.628906 157 169.214844 140.277344 169.214844 140.277344 "/><path style=" stroke:none;fill-rule:nonzero;fill:#c3921c;fill-opacity:1;" d="M 166.917969 151.910156 C 169.960938 157.046875 175.375 159.714844 179.285156 161.933594 C 182.78125 163.917969 185.925781 167.582031 183.554688 174.207031 C 166.917969 172.679688 166.917969 151.910156 166.917969 151.910156 "/><path style=" stroke:none;fill-rule:nonzero;fill:#c3921c;fill-opacity:1;" d="M 181.453125 139.839844 C 182.597656 135.457031 185.464844 128.222656 185.464844 128.222656 L 185.464844 150.976562 C 180.941406 148.15625 180.601562 143.101562 181.453125 139.839844 "/><path style=" stroke:none;fill-rule:nonzero;fill:#c3921c;fill-opacity:1;" d="M 177.699219 176.726562 C 182.039062 179.140625 185.914062 183.679688 183.207031 191.746094 C 181.214844 186.78125 177.449219 183.957031 177.449219 183.957031 C 180.210938 187.296875 183.679688 193.753906 182.28125 203.769531 C 182.023438 197.199219 180.515625 192.402344 179.726562 192.355469 C 173.957031 191.996094 170.625 187.800781 168.355469 183.957031 C 164.542969 177.488281 162.164062 164.136719 162.164062 164.136719 C 162.164062 164.136719 168.417969 171.578125 177.699219 176.726562 "/><path style=" stroke:none;fill-rule:nonzero;fill:#e7a811;fill-opacity:1;" d="M 148.359375 148.691406 C 145.625 152.625 142.722656 153.894531 140.113281 155.371094 C 137.785156 156.695312 135.6875 159.136719 137.265625 163.554688 C 148.039062 161.519531 148.359375 148.691406 148.359375 148.691406 "/><path style=" stroke:none;fill-rule:nonzero;fill:#e7a811;fill-opacity:1;" d="M 150.117188 157.617188 C 147.785156 161.5625 143.628906 163.609375 140.628906 165.308594 C 137.945312 166.832031 135.53125 169.644531 137.351562 174.730469 C 150.117188 173.554688 150.117188 157.617188 150.117188 157.617188 "/><path style=" stroke:none;fill-rule:nonzero;fill:#e7a811;fill-opacity:1;" d="M 141.847656 176.664062 C 138.511719 178.515625 135.539062 182 137.621094 188.191406 C 139.148438 184.378906 142.039062 182.210938 142.039062 182.210938 C 139.917969 184.777344 137.253906 189.730469 138.328125 197.421875 C 138.527344 192.375 139.683594 188.699219 140.289062 188.660156 C 144.714844 188.382812 147.273438 185.164062 149.015625 182.210938 C 151.945312 177.246094 153.765625 167.003906 153.765625 167.003906 C 153.765625 167.003906 148.96875 172.714844 141.847656 176.664062 "/><path style=" stroke:none;fill-rule:nonzero;fill:#e7a811;fill-opacity:1;" d="M 138.964844 148.351562 C 138.085938 144.988281 135.882812 139.4375 135.882812 139.4375 L 135.882812 156.902344 C 139.355469 154.738281 139.617188 150.855469 138.964844 148.351562 "/><path style=" stroke:none;fill-rule:nonzero;fill:#c3921c;fill-opacity:1;" d="M 123.410156 148.691406 C 126.144531 152.625 129.046875 153.894531 131.652344 155.371094 C 133.984375 156.695312 136.082031 159.136719 134.5 163.554688 C 123.726562 161.519531 123.410156 148.691406 123.410156 148.691406 "/><path style=" stroke:none;fill-rule:nonzero;fill:#c3921c;fill-opacity:1;" d="M 121.648438 157.617188 C 123.984375 161.5625 128.140625 163.609375 131.140625 165.308594 C 133.824219 166.832031 136.238281 169.644531 134.417969 174.730469 C 121.648438 173.554688 121.648438 157.617188 121.648438 157.617188 "/><path style=" stroke:none;fill-rule:nonzero;fill:#c3921c;fill-opacity:1;" d="M 132.804688 148.351562 C 133.683594 144.988281 135.882812 139.4375 135.882812 139.4375 L 135.882812 156.902344 C 132.414062 154.738281 132.148438 150.855469 132.804688 148.351562 "/><path style=" stroke:none;fill-rule:nonzero;fill:#c3921c;fill-opacity:1;" d="M 129.921875 176.664062 C 133.253906 178.515625 136.230469 182 134.148438 188.191406 C 132.621094 184.378906 129.730469 182.210938 129.730469 182.210938 C 131.851562 184.777344 134.515625 189.730469 133.4375 197.421875 C 133.242188 192.375 132.085938 188.699219 131.480469 188.660156 C 127.050781 188.382812 124.496094 185.164062 122.753906 182.210938 C 119.824219 177.246094 118 167.003906 118 167.003906 C 118 167.003906 122.800781 172.714844 129.921875 176.664062 "/></g></svg>