<svg xmlns="http://www.w3.org/2000/svg" xmlns:xlink="http://www.w3.org/1999/xlink" width="500" zoomAndPan="magnify" viewBox="0 0 375 149.999998" height="200" preserveAspectRatio="xMidYMid meet" version="1.2"><defs><clipPath id="b6b01a2244"><path d="M 22 83 L 62 83 L 62 112.644531 L 22 112.644531 Z M 22 83 "/></clipPath><clipPath id="d0be26e8a9"><path d="M 13.1875 26.257812 L 107.285156 26.257812 L 107.285156 98 L 13.1875 98 Z M 13.1875 26.257812 "/></clipPath></defs><g id="5a21bdcce6"><g clip-rule="nonzero" clip-path="url(#b6b01a2244)"><path style=" stroke:none;fill-rule:nonzero;fill:#1c6434;fill-opacity:1;" d="M 22.347656 83.867188 C 26.980469 100.421875 42.210938 112.597656 60.238281 112.597656 C 60.703125 112.597656 61.171875 112.589844 61.632812 112.574219 C 56.980469 110.617188 52.164062 107.820312 47.320312 103.921875 C 36.949219 95.570312 29.117188 88.464844 22.347656 83.867188 "/></g><path style=" stroke:none;fill-rule:nonzero;fill:#27963c;fill-opacity:1;" d="M 95.5625 90.574219 C 86.695312 94.214844 73.347656 92.890625 57.179688 84.898438 C 51.789062 82.238281 40.910156 74.125 21.125 77.460938 C 28.691406 81.785156 37.382812 89.882812 49.574219 99.703125 C 50.148438 100.164062 50.722656 100.609375 51.292969 101.039062 C 65.914062 112.058594 87.046875 107.347656 95.335938 91.027344 C 95.410156 90.875 95.488281 90.726562 95.5625 90.574219 "/><path style=" stroke:none;fill-rule:nonzero;fill:#80cc28;fill-opacity:1;" d="M 58.6875 81.828125 C 72.484375 87.738281 84.078125 89.144531 92.570312 87.078125 C 85.453125 86.957031 76.996094 85.042969 67.492188 80.996094 C 62.253906 78.765625 51.816406 71.929688 34.09375 74.996094 C 46.578125 75.027344 54.382812 79.984375 58.6875 81.828125 "/><g clip-rule="nonzero" clip-path="url(#d0be26e8a9)"><path style=" stroke:none;fill-rule:nonzero;fill:#f68712;fill-opacity:1;" d="M 60.238281 32.480469 C 85.09375 32.480469 105.242188 52.613281 105.242188 77.449219 C 105.242188 84.835938 103.460938 91.808594 100.300781 97.957031 C 104.730469 90.789062 107.285156 82.34375 107.285156 73.300781 C 107.285156 47.339844 86.222656 26.292969 60.238281 26.292969 C 34.253906 26.292969 13.1875 47.339844 13.1875 73.300781 C 13.1875 82.34375 15.746094 90.789062 20.171875 97.957031 C 17.011719 91.808594 15.230469 84.835938 15.230469 77.449219 C 15.230469 52.613281 35.378906 32.480469 60.238281 32.480469 "/></g><path style=" stroke:none;fill-rule:nonzero;fill:#e7a811;fill-opacity:1;" d="M 90.8125 51.105469 C 88.976562 53.75 87.027344 54.601562 85.28125 55.597656 C 83.714844 56.484375 82.308594 58.128906 83.371094 61.097656 C 90.597656 59.730469 90.8125 51.105469 90.8125 51.105469 "/><path style=" stroke:none;fill-rule:nonzero;fill:#e7a811;fill-opacity:1;" d="M 91.992188 57.105469 C 90.425781 59.757812 87.636719 61.132812 85.625 62.277344 C 83.824219 63.300781 82.203125 65.191406 83.425781 68.613281 C 91.992188 67.824219 91.992188 57.105469 91.992188 57.105469 "/><path style=" stroke:none;fill-rule:nonzero;fill:#e7a811;fill-opacity:1;" d="M 86.441406 69.914062 C 84.207031 71.15625 82.210938 73.5 83.605469 77.660156 C 84.632812 75.101562 86.570312 73.640625 86.570312 73.640625 C 85.144531 75.367188 83.359375 78.695312 84.082031 83.867188 C 84.214844 80.476562 84.988281 78 85.394531 77.976562 C 88.367188 77.789062 90.082031 75.625 91.25 73.640625 C 93.214844 70.304688 94.441406 63.414062 94.441406 63.414062 C 94.441406 63.414062 91.21875 67.257812 86.441406 69.914062 "/><path style=" stroke:none;fill-rule:nonzero;fill:#e7a811;fill-opacity:1;" d="M 84.507812 50.878906 C 83.917969 48.617188 82.441406 44.882812 82.441406 44.882812 L 82.441406 56.625 C 84.769531 55.167969 84.945312 52.5625 84.507812 50.878906 "/><path style=" stroke:none;fill-rule:nonzero;fill:#c3921c;fill-opacity:1;" d="M 74.070312 51.105469 C 75.90625 53.75 77.855469 54.601562 79.601562 55.597656 C 81.167969 56.484375 82.574219 58.128906 81.511719 61.097656 C 74.285156 59.730469 74.070312 51.105469 74.070312 51.105469 "/><path style=" stroke:none;fill-rule:nonzero;fill:#c3921c;fill-opacity:1;" d="M 72.890625 57.105469 C 74.457031 59.757812 77.246094 61.132812 79.257812 62.277344 C 81.058594 63.300781 82.675781 65.191406 81.457031 68.613281 C 72.890625 67.824219 72.890625 57.105469 72.890625 57.105469 "/><path style=" stroke:none;fill-rule:nonzero;fill:#c3921c;fill-opacity:1;" d="M 80.375 50.878906 C 80.964844 48.617188 82.441406 44.882812 82.441406 44.882812 L 82.441406 56.625 C 80.113281 55.167969 79.933594 52.5625 80.375 50.878906 "/><path style=" stroke:none;fill-rule:nonzero;fill:#c3921c;fill-opacity:1;" d="M 78.441406 69.914062 C 80.675781 71.15625 82.671875 73.5 81.277344 77.660156 C 80.25 75.101562 78.3125 73.640625 78.3125 73.640625 C 79.734375 75.367188 81.523438 78.695312 80.800781 83.867188 C 80.667969 80.476562 79.890625 78 79.484375 77.976562 C 76.515625 77.789062 74.796875 75.625 73.628906 73.640625 C 71.667969 70.304688 70.441406 63.414062 70.441406 63.414062 C 70.441406 63.414062 73.664062 67.257812 78.441406 69.914062 "/><path style=" stroke:none;fill-rule:nonzero;fill:#e7a811;fill-opacity:1;" d="M 65.714844 51.082031 C 64.328125 53.082031 62.851562 53.730469 61.53125 54.480469 C 60.347656 55.152344 59.28125 56.398438 60.085938 58.644531 C 65.554688 57.609375 65.714844 51.082031 65.714844 51.082031 "/><path style=" stroke:none;fill-rule:nonzero;fill:#e7a811;fill-opacity:1;" d="M 66.609375 55.625 C 65.425781 57.628906 63.3125 58.671875 61.792969 59.535156 C 60.429688 60.308594 59.203125 61.742188 60.128906 64.328125 C 66.609375 63.730469 66.609375 55.625 66.609375 55.625 "/><path style=" stroke:none;fill-rule:nonzero;fill:#e7a811;fill-opacity:1;" d="M 62.410156 65.3125 C 60.71875 66.253906 59.207031 68.023438 60.261719 71.175781 C 61.039062 69.238281 62.507812 68.132812 62.507812 68.132812 C 61.429688 69.4375 60.078125 71.957031 60.625 75.871094 C 60.722656 73.304688 61.3125 71.433594 61.617188 71.414062 C 63.867188 71.273438 65.164062 69.636719 66.050781 68.132812 C 67.535156 65.609375 68.460938 60.394531 68.460938 60.394531 C 68.460938 60.394531 66.023438 63.300781 62.410156 65.3125 "/><path style=" stroke:none;fill-rule:nonzero;fill:#e7a811;fill-opacity:1;" d="M 60.945312 50.910156 C 60.5 49.199219 59.382812 46.375 59.382812 46.375 L 59.382812 55.257812 C 61.144531 54.15625 61.277344 52.183594 60.945312 50.910156 "/><path style=" stroke:none;fill-rule:nonzero;fill:#c3921c;fill-opacity:1;" d="M 53.050781 51.082031 C 54.4375 53.082031 55.914062 53.730469 57.234375 54.480469 C 58.417969 55.152344 59.484375 56.398438 58.679688 58.644531 C 53.210938 57.609375 53.050781 51.082031 53.050781 51.082031 "/><path style=" stroke:none;fill-rule:nonzero;fill:#c3921c;fill-opacity:1;" d="M 52.15625 55.625 C 53.34375 57.628906 55.453125 58.671875 56.972656 59.535156 C 58.335938 60.308594 59.5625 61.742188 58.640625 64.328125 C 52.15625 63.730469 52.15625 55.625 52.15625 55.625 "/><path style=" stroke:none;fill-rule:nonzero;fill:#c3921c;fill-opacity:1;" d="M 57.820312 50.910156 C 58.265625 49.199219 59.382812 46.375 59.382812 46.375 L 59.382812 55.257812 C 57.621094 54.15625 57.488281 52.183594 57.820312 50.910156 "/><path style=" stroke:none;fill-rule:nonzero;fill:#c3921c;fill-opacity:1;" d="M 56.355469 65.3125 C 58.046875 66.253906 59.558594 68.023438 58.503906 71.175781 C 57.726562 69.238281 56.257812 68.132812 56.257812 68.132812 C 57.335938 69.4375 58.6875 71.957031 58.140625 75.871094 C 58.042969 73.304688 57.453125 71.433594 57.148438 71.414062 C 54.898438 71.273438 53.601562 69.636719 52.714844 68.132812 C 51.230469 65.609375 50.304688 60.394531 50.304688 60.394531 C 50.304688 60.394531 52.742188 63.300781 56.355469 65.3125 "/><path style=" stroke:none;fill-rule:nonzero;fill:#e7a811;fill-opacity:1;" d="M 44.925781 54.367188 C 43.859375 55.902344 42.726562 56.398438 41.710938 56.976562 C 40.804688 57.492188 39.988281 58.445312 40.601562 60.171875 C 44.800781 59.375 44.925781 54.367188 44.925781 54.367188 "/><path style=" stroke:none;fill-rule:nonzero;fill:#e7a811;fill-opacity:1;" d="M 45.609375 57.851562 C 44.699219 59.390625 43.082031 60.191406 41.914062 60.855469 C 40.867188 61.449219 39.925781 62.546875 40.636719 64.53125 C 45.609375 64.074219 45.609375 57.851562 45.609375 57.851562 "/><path style=" stroke:none;fill-rule:nonzero;fill:#e7a811;fill-opacity:1;" d="M 42.386719 65.289062 C 41.089844 66.011719 39.929688 67.371094 40.738281 69.789062 C 41.335938 68.300781 42.460938 67.453125 42.460938 67.453125 C 41.636719 68.453125 40.597656 70.386719 41.015625 73.390625 C 41.09375 71.421875 41.542969 69.984375 41.78125 69.96875 C 43.503906 69.863281 44.503906 68.605469 45.179688 67.453125 C 46.320312 65.515625 47.03125 61.515625 47.03125 61.515625 C 47.03125 61.515625 45.160156 63.746094 42.386719 65.289062 "/><path style=" stroke:none;fill-rule:nonzero;fill:#e7a811;fill-opacity:1;" d="M 41.265625 54.234375 C 40.921875 52.921875 40.0625 50.753906 40.0625 50.753906 L 40.0625 57.570312 C 41.417969 56.726562 41.519531 55.210938 41.265625 54.234375 "/><path style=" stroke:none;fill-rule:nonzero;fill:#c3921c;fill-opacity:1;" d="M 35.203125 54.367188 C 36.269531 55.902344 37.402344 56.398438 38.414062 56.976562 C 39.324219 57.492188 40.140625 58.445312 39.523438 60.171875 C 35.328125 59.375 35.203125 54.367188 35.203125 54.367188 "/><path style=" stroke:none;fill-rule:nonzero;fill:#c3921c;fill-opacity:1;" d="M 34.519531 57.851562 C 35.425781 59.390625 37.046875 60.191406 38.214844 60.855469 C 39.261719 61.449219 40.203125 62.546875 39.492188 64.53125 C 34.519531 64.074219 34.519531 57.851562 34.519531 57.851562 "/><path style=" stroke:none;fill-rule:nonzero;fill:#c3921c;fill-opacity:1;" d="M 38.863281 54.234375 C 39.207031 52.921875 40.0625 50.753906 40.0625 50.753906 L 40.0625 57.570312 C 38.710938 56.726562 38.609375 55.210938 38.863281 54.234375 "/><path style=" stroke:none;fill-rule:nonzero;fill:#c3921c;fill-opacity:1;" d="M 37.742188 65.289062 C 39.039062 66.011719 40.199219 67.371094 39.386719 69.789062 C 38.792969 68.300781 37.667969 67.453125 37.667969 67.453125 C 38.492188 68.453125 39.53125 70.386719 39.113281 73.390625 C 39.035156 71.421875 38.585938 69.984375 38.347656 69.96875 C 36.621094 69.863281 35.625 68.605469 34.949219 67.453125 C 33.808594 65.515625 33.097656 61.515625 33.097656 61.515625 C 33.097656 61.515625 34.96875 63.746094 37.742188 65.289062 "/><g style="fill:#ffffff;fill-opacity:1;"><g transform="translate(130.306774, 96.304068)"><path style="stroke:none" d="M 4.609375 -8.171875 C 5.210938 -8.171875 5.804688 -8.046875 6.390625 -7.796875 C 6.972656 -7.554688 7.46875 -7.226562 7.875 -6.8125 L 6.6875 -5.390625 C 6.414062 -5.710938 6.097656 -5.96875 5.734375 -6.15625 C 5.367188 -6.351562 5.003906 -6.453125 4.640625 -6.453125 C 4.003906 -6.453125 3.46875 -6.222656 3.03125 -5.765625 C 2.601562 -5.316406 2.390625 -4.757812 2.390625 -4.09375 C 2.390625 -3.414062 2.601562 -2.847656 3.03125 -2.390625 C 3.46875 -1.941406 4.003906 -1.71875 4.640625 -1.71875 C 4.984375 -1.71875 5.335938 -1.800781 5.703125 -1.96875 C 6.066406 -2.132812 6.394531 -2.363281 6.6875 -2.65625 L 7.890625 -1.390625 C 7.441406 -0.941406 6.921875 -0.582031 6.328125 -0.3125 C 5.734375 -0.0390625 5.132812 0.09375 4.53125 0.09375 C 3.3125 0.09375 2.296875 -0.300781 1.484375 -1.09375 C 0.679688 -1.894531 0.28125 -2.890625 0.28125 -4.078125 C 0.28125 -5.242188 0.691406 -6.21875 1.515625 -7 C 2.335938 -7.78125 3.367188 -8.171875 4.609375 -8.171875 Z M 4.609375 -8.171875 "/></g></g><g style="fill:#ffffff;fill-opacity:1;"><g transform="translate(141.378569, 96.304068)"><path style="stroke:none" d="M 4.65625 -8.171875 C 5.914062 -8.171875 6.960938 -7.78125 7.796875 -7 C 8.628906 -6.21875 9.046875 -5.238281 9.046875 -4.0625 C 9.046875 -2.882812 8.625 -1.894531 7.78125 -1.09375 C 6.945312 -0.300781 5.90625 0.09375 4.65625 0.09375 C 3.40625 0.09375 2.363281 -0.300781 1.53125 -1.09375 C 0.695312 -1.882812 0.28125 -2.875 0.28125 -4.0625 C 0.28125 -5.238281 0.695312 -6.21875 1.53125 -7 C 2.363281 -7.78125 3.40625 -8.171875 4.65625 -8.171875 Z M 4.671875 -6.453125 C 4.046875 -6.453125 3.507812 -6.222656 3.0625 -5.765625 C 2.613281 -5.304688 2.390625 -4.734375 2.390625 -4.046875 C 2.390625 -3.367188 2.613281 -2.796875 3.0625 -2.328125 C 3.507812 -1.859375 4.046875 -1.625 4.671875 -1.625 C 5.296875 -1.625 5.828125 -1.859375 6.265625 -2.328125 C 6.703125 -2.796875 6.921875 -3.367188 6.921875 -4.046875 C 6.921875 -4.734375 6.703125 -5.304688 6.265625 -5.765625 C 5.828125 -6.222656 5.296875 -6.453125 4.671875 -6.453125 Z M 4.671875 -6.453125 "/></g></g><g style="fill:#ffffff;fill-opacity:1;"><g transform="translate(153.75873, 96.304068)"><path style="stroke:none" d="M 9.71875 0 L 7.890625 0 L 7.890625 -5.265625 L 5.9375 -0.8125 L 4.59375 -0.8125 L 2.65625 -5.265625 L 2.65625 0 L 0.8125 0 L 0.8125 -8.109375 L 3.0625 -8.109375 L 5.265625 -3.28125 L 7.46875 -8.109375 L 9.71875 -8.109375 Z M 9.71875 0 "/></g></g><g style="fill:#ffffff;fill-opacity:1;"><g transform="translate(167.354621, 96.304068)"><path style="stroke:none" d="M 6.046875 -10.125 L 4.53125 -8.8125 L 3.015625 -8.8125 L 4.234375 -10.75 Z M 7.15625 -6.484375 L 2.875 -6.484375 L 2.875 -4.875 L 6.734375 -4.875 L 6.734375 -3.25 L 2.875 -3.25 L 2.875 -1.625 L 7.28125 -1.625 L 7.28125 0 L 0.8125 0 L 0.8125 -8.109375 L 7.15625 -8.109375 Z M 7.15625 -6.484375 "/></g></g><g style="fill:#ffffff;fill-opacity:1;"><g transform="translate(178.218009, 96.304068)"><path style="stroke:none" d="M 5.703125 0 L 4.5 -2.28125 L 2.875 -2.28125 L 2.875 0 L 0.8125 0 L 0.8125 -8.109375 L 4.4375 -8.109375 C 5.507812 -8.109375 6.335938 -7.863281 6.921875 -7.375 C 7.503906 -6.882812 7.796875 -6.1875 7.796875 -5.28125 C 7.796875 -4.03125 7.304688 -3.160156 6.328125 -2.671875 L 8.03125 0 Z M 2.875 -3.90625 L 4.4375 -3.90625 C 4.882812 -3.90625 5.226562 -4.015625 5.46875 -4.234375 C 5.71875 -4.460938 5.84375 -4.785156 5.84375 -5.203125 C 5.84375 -5.617188 5.71875 -5.9375 5.46875 -6.15625 C 5.226562 -6.375 4.882812 -6.484375 4.4375 -6.484375 L 2.875 -6.484375 Z M 2.875 -3.90625 "/></g></g><g style="fill:#ffffff;fill-opacity:1;"><g transform="translate(189.660312, 96.304068)"><path style="stroke:none" d="M 4.609375 -8.171875 C 5.210938 -8.171875 5.804688 -8.046875 6.390625 -7.796875 C 6.972656 -7.554688 7.46875 -7.226562 7.875 -6.8125 L 6.6875 -5.390625 C 6.414062 -5.710938 6.097656 -5.96875 5.734375 -6.15625 C 5.367188 -6.351562 5.003906 -6.453125 4.640625 -6.453125 C 4.003906 -6.453125 3.46875 -6.222656 3.03125 -5.765625 C 2.601562 -5.316406 2.390625 -4.757812 2.390625 -4.09375 C 2.390625 -3.414062 2.601562 -2.847656 3.03125 -2.390625 C 3.46875 -1.941406 4.003906 -1.71875 4.640625 -1.71875 C 4.984375 -1.71875 5.335938 -1.800781 5.703125 -1.96875 C 6.066406 -2.132812 6.394531 -2.363281 6.6875 -2.65625 L 7.890625 -1.390625 C 7.441406 -0.941406 6.921875 -0.582031 6.328125 -0.3125 C 5.734375 -0.0390625 5.132812 0.09375 4.53125 0.09375 C 3.3125 0.09375 2.296875 -0.300781 1.484375 -1.09375 C 0.679688 -1.894531 0.28125 -2.890625 0.28125 -4.078125 C 0.28125 -5.242188 0.691406 -6.21875 1.515625 -7 C 2.335938 -7.78125 3.367188 -8.171875 4.609375 -8.171875 Z M 4.609375 -8.171875 "/></g></g><g style="fill:#ffffff;fill-opacity:1;"><g transform="translate(200.732106, 96.304068)"><path style="stroke:none" d="M 2.875 0 L 0.8125 0 L 0.8125 -8.109375 L 2.875 -8.109375 Z M 2.875 0 "/></g></g><g style="fill:#ffffff;fill-opacity:1;"><g transform="translate(207.473581, 96.304068)"><path style="stroke:none" d="M 4.65625 -8.171875 C 5.914062 -8.171875 6.960938 -7.78125 7.796875 -7 C 8.628906 -6.21875 9.046875 -5.238281 9.046875 -4.0625 C 9.046875 -2.882812 8.625 -1.894531 7.78125 -1.09375 C 6.945312 -0.300781 5.90625 0.09375 4.65625 0.09375 C 3.40625 0.09375 2.363281 -0.300781 1.53125 -1.09375 C 0.695312 -1.882812 0.28125 -2.875 0.28125 -4.0625 C 0.28125 -5.238281 0.695312 -6.21875 1.53125 -7 C 2.363281 -7.78125 3.40625 -8.171875 4.65625 -8.171875 Z M 4.671875 -6.453125 C 4.046875 -6.453125 3.507812 -6.222656 3.0625 -5.765625 C 2.613281 -5.304688 2.390625 -4.734375 2.390625 -4.046875 C 2.390625 -3.367188 2.613281 -2.796875 3.0625 -2.328125 C 3.507812 -1.859375 4.046875 -1.625 4.671875 -1.625 C 5.296875 -1.625 5.828125 -1.859375 6.265625 -2.328125 C 6.703125 -2.796875 6.921875 -3.367188 6.921875 -4.046875 C 6.921875 -4.734375 6.703125 -5.304688 6.265625 -5.765625 C 5.828125 -6.222656 5.296875 -6.453125 4.671875 -6.453125 Z M 4.671875 -6.453125 "/></g></g><g style="fill:#ffffff;fill-opacity:1;"><g transform="translate(219.853742, 96.304068)"><path style="stroke:none" d=""/></g></g><g style="fill:#ffffff;fill-opacity:1;"><g transform="translate(225.599474, 96.304068)"><path style="stroke:none" d="M 7.15625 -6.484375 L 2.875 -6.484375 L 2.875 -4.875 L 6.734375 -4.875 L 6.734375 -3.25 L 2.875 -3.25 L 2.875 -1.625 L 7.28125 -1.625 L 7.28125 0 L 0.8125 0 L 0.8125 -8.109375 L 7.15625 -8.109375 Z M 7.15625 -6.484375 "/></g></g><g style="fill:#ffffff;fill-opacity:1;"><g transform="translate(236.462862, 96.304068)"><path style="stroke:none" d=""/></g></g><g style="fill:#ffffff;fill-opacity:1;"><g transform="translate(242.208593, 96.304068)"><path style="stroke:none" d="M 7 -6.453125 L 4.5625 -6.453125 L 4.5625 0 L 2.5 0 L 2.5 -6.453125 L 0.078125 -6.453125 L 0.078125 -8.109375 L 7 -8.109375 Z M 7 -6.453125 "/></g></g><g style="fill:#ffffff;fill-opacity:1;"><g transform="translate(252.342544, 96.304068)"><path style="stroke:none" d="M 5.703125 0 L 4.5 -2.28125 L 2.875 -2.28125 L 2.875 0 L 0.8125 0 L 0.8125 -8.109375 L 4.4375 -8.109375 C 5.507812 -8.109375 6.335938 -7.863281 6.921875 -7.375 C 7.503906 -6.882812 7.796875 -6.1875 7.796875 -5.28125 C 7.796875 -4.03125 7.304688 -3.160156 6.328125 -2.671875 L 8.03125 0 Z M 2.875 -3.90625 L 4.4375 -3.90625 C 4.882812 -3.90625 5.226562 -4.015625 5.46875 -4.234375 C 5.71875 -4.460938 5.84375 -4.785156 5.84375 -5.203125 C 5.84375 -5.617188 5.71875 -5.9375 5.46875 -6.15625 C 5.226562 -6.375 4.882812 -6.484375 4.4375 -6.484375 L 2.875 -6.484375 Z M 2.875 -3.90625 "/></g></g><g style="fill:#ffffff;fill-opacity:1;"><g transform="translate(263.784847, 96.304068)"><path style="stroke:none" d="M 6.1875 -1.5 L 2.65625 -1.5 L 2.0625 0 L -0.0625 0 L 3.4375 -8.109375 L 5.5625 -8.109375 L 8.96875 0 L 6.765625 0 Z M 5.59375 -3.0625 L 4.4375 -6.0625 L 3.25 -3.0625 Z M 5.59375 -3.0625 "/></g></g><g style="fill:#ffffff;fill-opacity:1;"><g transform="translate(275.759761, 96.304068)"><path style="stroke:none" d="M 8.296875 0 L 6.46875 0 L 2.75 -4.984375 L 2.75 0 L 0.8125 0 L 0.8125 -8.109375 L 2.625 -8.109375 L 6.375 -3.109375 L 6.375 -8.109375 L 8.296875 -8.109375 Z M 8.296875 0 "/></g></g><g style="fill:#ffffff;fill-opacity:1;"><g transform="translate(287.919922, 96.304068)"><path style="stroke:none" d="M 3.921875 -8.203125 C 5.140625 -8.203125 6.207031 -7.898438 7.125 -7.296875 L 6.34375 -5.6875 C 5.914062 -5.9375 5.457031 -6.140625 4.96875 -6.296875 C 4.488281 -6.453125 4.082031 -6.53125 3.75 -6.53125 C 3.15625 -6.53125 2.859375 -6.332031 2.859375 -5.9375 C 2.859375 -5.6875 3.003906 -5.484375 3.296875 -5.328125 C 3.585938 -5.171875 3.941406 -5.035156 4.359375 -4.921875 C 4.785156 -4.816406 5.207031 -4.679688 5.625 -4.515625 C 6.050781 -4.359375 6.410156 -4.101562 6.703125 -3.75 C 6.992188 -3.394531 7.140625 -2.945312 7.140625 -2.40625 C 7.140625 -1.625 6.832031 -1.015625 6.21875 -0.578125 C 5.613281 -0.148438 4.84375 0.0625 3.90625 0.0625 C 3.226562 0.0625 2.5625 -0.0507812 1.90625 -0.28125 C 1.25 -0.507812 0.679688 -0.828125 0.203125 -1.234375 L 1 -2.8125 C 1.40625 -2.457031 1.882812 -2.164062 2.4375 -1.9375 C 3 -1.707031 3.492188 -1.59375 3.921875 -1.59375 C 4.253906 -1.59375 4.515625 -1.648438 4.703125 -1.765625 C 4.890625 -1.890625 4.984375 -2.066406 4.984375 -2.296875 C 4.984375 -2.523438 4.875 -2.710938 4.65625 -2.859375 C 4.445312 -3.015625 4.179688 -3.128906 3.859375 -3.203125 C 3.546875 -3.273438 3.203125 -3.375 2.828125 -3.5 C 2.460938 -3.625 2.117188 -3.757812 1.796875 -3.90625 C 1.484375 -4.050781 1.21875 -4.28125 1 -4.59375 C 0.789062 -4.914062 0.6875 -5.300781 0.6875 -5.75 C 0.6875 -6.488281 0.984375 -7.082031 1.578125 -7.53125 C 2.171875 -7.976562 2.953125 -8.203125 3.921875 -8.203125 Z M 3.921875 -8.203125 "/></g></g><g style="fill:#ffffff;fill-opacity:1;"><g transform="translate(298.43596, 96.304068)"><path style="stroke:none" d="M 0.8125 -8.109375 L 4.34375 -8.109375 C 5.375 -8.109375 6.175781 -7.863281 6.75 -7.375 C 7.320312 -6.882812 7.609375 -6.1875 7.609375 -5.28125 C 7.609375 -4.332031 7.320312 -3.59375 6.75 -3.0625 C 6.175781 -2.539062 5.375 -2.28125 4.34375 -2.28125 L 2.875 -2.28125 L 2.875 0 L 0.8125 0 Z M 2.875 -6.484375 L 2.875 -3.90625 L 4.234375 -3.90625 C 4.691406 -3.90625 5.039062 -4.015625 5.28125 -4.234375 C 5.53125 -4.460938 5.65625 -4.785156 5.65625 -5.203125 C 5.65625 -5.617188 5.53125 -5.9375 5.28125 -6.15625 C 5.039062 -6.375 4.691406 -6.484375 4.234375 -6.484375 Z M 2.875 -6.484375 "/></g></g><g style="fill:#ffffff;fill-opacity:1;"><g transform="translate(309.368812, 96.304068)"><path style="stroke:none" d="M 4.65625 -8.171875 C 5.914062 -8.171875 6.960938 -7.78125 7.796875 -7 C 8.628906 -6.21875 9.046875 -5.238281 9.046875 -4.0625 C 9.046875 -2.882812 8.625 -1.894531 7.78125 -1.09375 C 6.945312 -0.300781 5.90625 0.09375 4.65625 0.09375 C 3.40625 0.09375 2.363281 -0.300781 1.53125 -1.09375 C 0.695312 -1.882812 0.28125 -2.875 0.28125 -4.0625 C 0.28125 -5.238281 0.695312 -6.21875 1.53125 -7 C 2.363281 -7.78125 3.40625 -8.171875 4.65625 -8.171875 Z M 4.671875 -6.453125 C 4.046875 -6.453125 3.507812 -6.222656 3.0625 -5.765625 C 2.613281 -5.304688 2.390625 -4.734375 2.390625 -4.046875 C 2.390625 -3.367188 2.613281 -2.796875 3.0625 -2.328125 C 3.507812 -1.859375 4.046875 -1.625 4.671875 -1.625 C 5.296875 -1.625 5.828125 -1.859375 6.265625 -2.328125 C 6.703125 -2.796875 6.921875 -3.367188 6.921875 -4.046875 C 6.921875 -4.734375 6.703125 -5.304688 6.265625 -5.765625 C 5.828125 -6.222656 5.296875 -6.453125 4.671875 -6.453125 Z M 4.671875 -6.453125 "/></g></g><g style="fill:#ffffff;fill-opacity:1;"><g transform="translate(321.748974, 96.304068)"><path style="stroke:none" d="M 5.703125 0 L 4.5 -2.28125 L 2.875 -2.28125 L 2.875 0 L 0.8125 0 L 0.8125 -8.109375 L 4.4375 -8.109375 C 5.507812 -8.109375 6.335938 -7.863281 6.921875 -7.375 C 7.503906 -6.882812 7.796875 -6.1875 7.796875 -5.28125 C 7.796875 -4.03125 7.304688 -3.160156 6.328125 -2.671875 L 8.03125 0 Z M 2.875 -3.90625 L 4.4375 -3.90625 C 4.882812 -3.90625 5.226562 -4.015625 5.46875 -4.234375 C 5.71875 -4.460938 5.84375 -4.785156 5.84375 -5.203125 C 5.84375 -5.617188 5.71875 -5.9375 5.46875 -6.15625 C 5.226562 -6.375 4.882812 -6.484375 4.4375 -6.484375 L 2.875 -6.484375 Z M 2.875 -3.90625 "/></g></g><g style="fill:#ffffff;fill-opacity:1;"><g transform="translate(333.191277, 96.304068)"><path style="stroke:none" d="M 7 -6.453125 L 4.5625 -6.453125 L 4.5625 0 L 2.5 0 L 2.5 -6.453125 L 0.078125 -6.453125 L 0.078125 -8.109375 L 7 -8.109375 Z M 7 -6.453125 "/></g></g><g style="fill:#ffffff;fill-opacity:1;"><g transform="translate(343.325227, 96.304068)"><path style="stroke:none" d="M 7.15625 -6.484375 L 2.875 -6.484375 L 2.875 -4.875 L 6.734375 -4.875 L 6.734375 -3.25 L 2.875 -3.25 L 2.875 -1.625 L 7.28125 -1.625 L 7.28125 0 L 0.8125 0 L 0.8125 -8.109375 L 7.15625 -8.109375 Z M 7.15625 -6.484375 "/></g></g><g style="fill:#ffffff;fill-opacity:1;"><g transform="translate(121.804351, 77.876227)"><path style="stroke:none" d="M 23.15625 -1.078125 C 23.21875 -0.941406 23.25 -0.796875 23.25 -0.640625 C 23.25 -0.492188 23.175781 -0.347656 23.03125 -0.203125 C 22.894531 -0.0664062 22.726562 0 22.53125 0 L 15.84375 0 C 15.164062 0 14.695312 -0.289062 14.4375 -0.875 L 11.625 -7.125 L 10.28125 -7.125 L 10.28125 -0.875 C 10.28125 -0.632812 10.191406 -0.425781 10.015625 -0.25 C 9.847656 -0.0820312 9.644531 0 9.40625 0 L 3 0 C 2.757812 0 2.550781 -0.0820312 2.375 -0.25 C 2.207031 -0.425781 2.125 -0.632812 2.125 -0.875 L 2.125 -21.984375 C 2.125 -22.222656 2.207031 -22.425781 2.375 -22.59375 C 2.550781 -22.769531 2.757812 -22.859375 3 -22.859375 L 12.671875 -22.859375 C 15.804688 -22.859375 18.253906 -22.15625 20.015625 -20.75 C 21.773438 -19.34375 22.65625 -17.328125 22.65625 -14.703125 C 22.65625 -12.085938 21.484375 -10.023438 19.140625 -8.515625 Z M 10.28125 -16.78125 L 10.28125 -13.328125 L 12.671875 -13.328125 C 13.148438 -13.328125 13.519531 -13.484375 13.78125 -13.796875 C 14.039062 -14.109375 14.171875 -14.503906 14.171875 -14.984375 C 14.171875 -15.460938 14.046875 -15.878906 13.796875 -16.234375 C 13.546875 -16.597656 13.171875 -16.78125 12.671875 -16.78125 Z M 10.28125 -16.78125 "/></g></g><g style="fill:#ffffff;fill-opacity:1;"><g transform="translate(146.037492, 77.876227)"><path style="stroke:none" d="M 14.03125 -14.6875 C 14.257812 -14.976562 14.375 -15.316406 14.375 -15.703125 C 14.375 -16.097656 14.257812 -16.453125 14.03125 -16.765625 C 13.800781 -17.085938 13.46875 -17.25 13.03125 -17.25 L 10.28125 -17.25 L 10.28125 -14.265625 L 13.03125 -14.265625 C 13.46875 -14.265625 13.800781 -14.40625 14.03125 -14.6875 Z M 10.28125 -8.8125 L 10.28125 -5.609375 L 13.328125 -5.609375 C 13.828125 -5.609375 14.203125 -5.773438 14.453125 -6.109375 C 14.703125 -6.453125 14.828125 -6.832031 14.828125 -7.25 L 14.828125 -7.28125 C 14.828125 -7.695312 14.691406 -8.054688 14.421875 -8.359375 C 14.148438 -8.660156 13.785156 -8.8125 13.328125 -8.8125 Z M 14.171875 0 L 3 0 C 2.757812 0 2.550781 -0.0820312 2.375 -0.25 C 2.207031 -0.425781 2.125 -0.632812 2.125 -0.875 L 2.125 -21.984375 C 2.125 -22.222656 2.207031 -22.425781 2.375 -22.59375 C 2.550781 -22.769531 2.757812 -22.859375 3 -22.859375 L 13.84375 -22.859375 C 16.9375 -22.859375 19.21875 -22.296875 20.6875 -21.171875 C 22.15625 -20.054688 22.890625 -18.363281 22.890625 -16.09375 L 22.890625 -16 C 22.890625 -15.0625 22.617188 -14.226562 22.078125 -13.5 C 21.535156 -12.769531 20.9375 -12.242188 20.28125 -11.921875 C 21.144531 -11.566406 21.875 -10.945312 22.46875 -10.0625 C 23.070312 -9.1875 23.375 -8.226562 23.375 -7.1875 C 23.375 -2.394531 20.304688 0 14.171875 0 Z M 14.171875 0 "/></g></g><g style="fill:#ffffff;fill-opacity:1;"><g transform="translate(170.727854, 77.876227)"><path style="stroke:none" d="M 1.53125 -15.671875 C 1.53125 -17.890625 2.445312 -19.695312 4.28125 -21.09375 C 6.125 -22.488281 8.539062 -23.1875 11.53125 -23.1875 C 14.53125 -23.1875 16.984375 -22.457031 18.890625 -21 C 20.796875 -19.539062 21.75 -18.015625 21.75 -16.421875 C 21.75 -16.222656 21.675781 -16.050781 21.53125 -15.90625 C 21.394531 -15.769531 21.238281 -15.703125 21.0625 -15.703125 L 14.53125 -15.703125 C 14.03125 -15.703125 13.570312 -15.882812 13.15625 -16.25 C 12.75 -16.625 12.195312 -16.8125 11.5 -16.8125 C 10.445312 -16.8125 9.921875 -16.507812 9.921875 -15.90625 C 9.921875 -15.570312 10.175781 -15.296875 10.6875 -15.078125 C 11.207031 -14.867188 12.160156 -14.675781 13.546875 -14.5 C 16.796875 -14.082031 19.109375 -13.320312 20.484375 -12.21875 C 21.867188 -11.125 22.5625 -9.460938 22.5625 -7.234375 C 22.5625 -5.003906 21.539062 -3.1875 19.5 -1.78125 C 17.46875 -0.375 14.804688 0.328125 11.515625 0.328125 C 8.234375 0.328125 5.65625 -0.34375 3.78125 -1.6875 C 1.914062 -3.039062 0.984375 -4.6875 0.984375 -6.625 C 0.984375 -6.820312 1.050781 -6.988281 1.1875 -7.125 C 1.332031 -7.269531 1.503906 -7.34375 1.703125 -7.34375 L 7.90625 -7.34375 C 8.363281 -7.34375 8.867188 -7.125 9.421875 -6.6875 C 9.972656 -6.257812 10.738281 -6.046875 11.71875 -6.046875 C 13.351562 -6.046875 14.171875 -6.347656 14.171875 -6.953125 C 14.171875 -7.347656 13.875 -7.644531 13.28125 -7.84375 C 12.695312 -8.050781 11.585938 -8.265625 9.953125 -8.484375 C 4.335938 -9.222656 1.53125 -11.617188 1.53125 -15.671875 Z M 1.53125 -15.671875 "/></g></g><g style="fill:#ffffff;fill-opacity:1;"><g transform="translate(194.275151, 77.876227)"><path style="stroke:none" d=""/></g></g><g style="fill:#ffffff;fill-opacity:1;"><g transform="translate(203.746328, 77.876227)"><path style="stroke:none" d="M 9.953125 -14.171875 L 9.953125 -8.6875 C 9.953125 -6.925781 10.757812 -6.046875 12.375 -6.046875 C 13.613281 -6.046875 14.429688 -6.632812 14.828125 -7.8125 C 14.929688 -8.175781 15.066406 -8.421875 15.234375 -8.546875 C 15.398438 -8.679688 15.664062 -8.75 16.03125 -8.75 L 22.703125 -8.75 C 22.890625 -8.75 23.054688 -8.675781 23.203125 -8.53125 C 23.347656 -8.394531 23.421875 -8.226562 23.421875 -8.03125 C 23.421875 -6.132812 22.875 -4.546875 21.78125 -3.265625 C 19.78125 -0.867188 16.65625 0.328125 12.40625 0.328125 C 9.070312 0.328125 6.414062 -0.40625 4.4375 -1.875 C 2.457031 -3.34375 1.46875 -5.601562 1.46875 -8.65625 L 1.46875 -14.203125 C 1.46875 -17.179688 2.476562 -19.421875 4.5 -20.921875 C 6.53125 -22.429688 9.164062 -23.1875 12.40625 -23.1875 C 16.65625 -23.1875 19.78125 -21.988281 21.78125 -19.59375 C 22.875 -18.3125 23.421875 -16.722656 23.421875 -14.828125 C 23.421875 -14.628906 23.347656 -14.457031 23.203125 -14.3125 C 23.054688 -14.175781 22.890625 -14.109375 22.703125 -14.109375 L 16.03125 -14.109375 C 15.6875 -14.109375 15.429688 -14.171875 15.265625 -14.296875 C 15.097656 -14.429688 14.953125 -14.679688 14.828125 -15.046875 C 14.410156 -16.222656 13.59375 -16.8125 12.375 -16.8125 C 10.757812 -16.8125 9.953125 -15.929688 9.953125 -14.171875 Z M 9.953125 -14.171875 "/></g></g><g style="fill:#ffffff;fill-opacity:1;"><g transform="translate(228.142762, 77.876227)"><path style="stroke:none" d="M 9.953125 -6.375 L 20.015625 -6.375 C 20.253906 -6.375 20.460938 -6.285156 20.640625 -6.109375 C 20.816406 -5.929688 20.90625 -5.722656 20.90625 -5.484375 L 20.90625 -0.875 C 20.90625 -0.632812 20.816406 -0.425781 20.640625 -0.25 C 20.460938 -0.0820312 20.253906 0 20.015625 0 L 3 0 C 2.757812 0 2.550781 -0.0820312 2.375 -0.25 C 2.207031 -0.425781 2.125 -0.632812 2.125 -0.875 L 2.125 -21.984375 C 2.125 -22.222656 2.207031 -22.425781 2.375 -22.59375 C 2.550781 -22.769531 2.757812 -22.859375 3 -22.859375 L 19.75 -22.859375 C 19.988281 -22.859375 20.195312 -22.769531 20.375 -22.59375 C 20.550781 -22.425781 20.640625 -22.222656 20.640625 -21.984375 L 20.640625 -17.375 C 20.640625 -17.132812 20.550781 -16.925781 20.375 -16.75 C 20.195312 -16.570312 19.988281 -16.484375 19.75 -16.484375 L 9.953125 -16.484375 L 9.953125 -14.4375 L 19.03125 -14.4375 C 19.269531 -14.4375 19.476562 -14.347656 19.65625 -14.171875 C 19.832031 -13.992188 19.921875 -13.785156 19.921875 -13.546875 L 19.921875 -9.3125 C 19.921875 -9.070312 19.832031 -8.863281 19.65625 -8.6875 C 19.476562 -8.507812 19.269531 -8.421875 19.03125 -8.421875 L 9.953125 -8.421875 Z M 9.953125 -6.375 "/></g></g><g style="fill:#ffffff;fill-opacity:1;"><g transform="translate(250.840922, 77.876227)"><path style="stroke:none" d="M 23.15625 -1.078125 C 23.21875 -0.941406 23.25 -0.796875 23.25 -0.640625 C 23.25 -0.492188 23.175781 -0.347656 23.03125 -0.203125 C 22.894531 -0.0664062 22.726562 0 22.53125 0 L 15.84375 0 C 15.164062 0 14.695312 -0.289062 14.4375 -0.875 L 11.625 -7.125 L 10.28125 -7.125 L 10.28125 -0.875 C 10.28125 -0.632812 10.191406 -0.425781 10.015625 -0.25 C 9.847656 -0.0820312 9.644531 0 9.40625 0 L 3 0 C 2.757812 0 2.550781 -0.0820312 2.375 -0.25 C 2.207031 -0.425781 2.125 -0.632812 2.125 -0.875 L 2.125 -21.984375 C 2.125 -22.222656 2.207031 -22.425781 2.375 -22.59375 C 2.550781 -22.769531 2.757812 -22.859375 3 -22.859375 L 12.671875 -22.859375 C 15.804688 -22.859375 18.253906 -22.15625 20.015625 -20.75 C 21.773438 -19.34375 22.65625 -17.328125 22.65625 -14.703125 C 22.65625 -12.085938 21.484375 -10.023438 19.140625 -8.515625 Z M 10.28125 -16.78125 L 10.28125 -13.328125 L 12.671875 -13.328125 C 13.148438 -13.328125 13.519531 -13.484375 13.78125 -13.796875 C 14.039062 -14.109375 14.171875 -14.503906 14.171875 -14.984375 C 14.171875 -15.460938 14.046875 -15.878906 13.796875 -16.234375 C 13.546875 -16.597656 13.171875 -16.78125 12.671875 -16.78125 Z M 10.28125 -16.78125 "/></g></g><g style="fill:#ffffff;fill-opacity:1;"><g transform="translate(275.074063, 77.876227)"><path style="stroke:none" d="M 9.953125 -6.375 L 20.015625 -6.375 C 20.253906 -6.375 20.460938 -6.285156 20.640625 -6.109375 C 20.816406 -5.929688 20.90625 -5.722656 20.90625 -5.484375 L 20.90625 -0.875 C 20.90625 -0.632812 20.816406 -0.425781 20.640625 -0.25 C 20.460938 -0.0820312 20.253906 0 20.015625 0 L 3 0 C 2.757812 0 2.550781 -0.0820312 2.375 -0.25 C 2.207031 -0.425781 2.125 -0.632812 2.125 -0.875 L 2.125 -21.984375 C 2.125 -22.222656 2.207031 -22.425781 2.375 -22.59375 C 2.550781 -22.769531 2.757812 -22.859375 3 -22.859375 L 19.75 -22.859375 C 19.988281 -22.859375 20.195312 -22.769531 20.375 -22.59375 C 20.550781 -22.425781 20.640625 -22.222656 20.640625 -21.984375 L 20.640625 -17.375 C 20.640625 -17.132812 20.550781 -16.925781 20.375 -16.75 C 20.195312 -16.570312 19.988281 -16.484375 19.75 -16.484375 L 9.953125 -16.484375 L 9.953125 -14.4375 L 19.03125 -14.4375 C 19.269531 -14.4375 19.476562 -14.347656 19.65625 -14.171875 C 19.832031 -13.992188 19.921875 -13.785156 19.921875 -13.546875 L 19.921875 -9.3125 C 19.921875 -9.070312 19.832031 -8.863281 19.65625 -8.6875 C 19.476562 -8.507812 19.269531 -8.421875 19.03125 -8.421875 L 9.953125 -8.421875 Z M 9.953125 -6.375 "/></g></g><g style="fill:#ffffff;fill-opacity:1;"><g transform="translate(297.772224, 77.876227)"><path style="stroke:none" d="M 9.28125 -22.859375 L 16.359375 -22.859375 C 17.140625 -22.859375 17.628906 -22.5 17.828125 -21.78125 L 25.109375 -0.953125 C 25.128906 -0.878906 25.140625 -0.769531 25.140625 -0.625 C 25.140625 -0.488281 25.066406 -0.347656 24.921875 -0.203125 C 24.785156 -0.0664062 24.617188 0 24.421875 0 L 18.390625 0 C 17.734375 0 17.304688 -0.269531 17.109375 -0.8125 L 16.328125 -2.96875 L 9.3125 -2.96875 L 8.515625 -0.8125 C 8.328125 -0.269531 7.90625 0 7.25 0 L 1.203125 0 C 1.015625 0 0.847656 -0.0664062 0.703125 -0.203125 C 0.554688 -0.347656 0.484375 -0.488281 0.484375 -0.625 C 0.484375 -0.769531 0.492188 -0.878906 0.515625 -0.953125 L 7.8125 -21.78125 C 8 -22.5 8.488281 -22.859375 9.28125 -22.859375 Z M 10.96875 -9.34375 L 14.65625 -9.34375 L 12.796875 -15.40625 Z M 10.96875 -9.34375 "/></g></g><g style="fill:#ffffff;fill-opacity:1;"><g transform="translate(323.40971, 77.876227)"><path style="stroke:none" d="M 9.671875 0 L 3 0 C 2.757812 0 2.550781 -0.0820312 2.375 -0.25 C 2.207031 -0.425781 2.125 -0.632812 2.125 -0.875 L 2.125 -21.984375 C 2.125 -22.222656 2.207031 -22.425781 2.375 -22.59375 C 2.550781 -22.769531 2.757812 -22.859375 3 -22.859375 L 9.671875 -22.859375 C 9.910156 -22.859375 10.113281 -22.769531 10.28125 -22.59375 C 10.457031 -22.425781 10.546875 -22.222656 10.546875 -21.984375 L 10.546875 -0.875 C 10.546875 -0.632812 10.457031 -0.425781 10.28125 -0.25 C 10.113281 -0.0820312 9.910156 0 9.671875 0 Z M 9.671875 0 "/></g></g><g style="fill:#ffffff;fill-opacity:1;"><g transform="translate(336.081484, 77.876227)"><path style="stroke:none" d="M 1.53125 -15.671875 C 1.53125 -17.890625 2.445312 -19.695312 4.28125 -21.09375 C 6.125 -22.488281 8.539062 -23.1875 11.53125 -23.1875 C 14.53125 -23.1875 16.984375 -22.457031 18.890625 -21 C 20.796875 -19.539062 21.75 -18.015625 21.75 -16.421875 C 21.75 -16.222656 21.675781 -16.050781 21.53125 -15.90625 C 21.394531 -15.769531 21.238281 -15.703125 21.0625 -15.703125 L 14.53125 -15.703125 C 14.03125 -15.703125 13.570312 -15.882812 13.15625 -16.25 C 12.75 -16.625 12.195312 -16.8125 11.5 -16.8125 C 10.445312 -16.8125 9.921875 -16.507812 9.921875 -15.90625 C 9.921875 -15.570312 10.175781 -15.296875 10.6875 -15.078125 C 11.207031 -14.867188 12.160156 -14.675781 13.546875 -14.5 C 16.796875 -14.082031 19.109375 -13.320312 20.484375 -12.21875 C 21.867188 -11.125 22.5625 -9.460938 22.5625 -7.234375 C 22.5625 -5.003906 21.539062 -3.1875 19.5 -1.78125 C 17.46875 -0.375 14.804688 0.328125 11.515625 0.328125 C 8.234375 0.328125 5.65625 -0.34375 3.78125 -1.6875 C 1.914062 -3.039062 0.984375 -4.6875 0.984375 -6.625 C 0.984375 -6.820312 1.050781 -6.988281 1.1875 -7.125 C 1.332031 -7.269531 1.503906 -7.34375 1.703125 -7.34375 L 7.90625 -7.34375 C 8.363281 -7.34375 8.867188 -7.125 9.421875 -6.6875 C 9.972656 -6.257812 10.738281 -6.046875 11.71875 -6.046875 C 13.351562 -6.046875 14.171875 -6.347656 14.171875 -6.953125 C 14.171875 -7.347656 13.875 -7.644531 13.28125 -7.84375 C 12.695312 -8.050781 11.585938 -8.265625 9.953125 -8.484375 C 4.335938 -9.222656 1.53125 -11.617188 1.53125 -15.671875 Z M 1.53125 -15.671875 "/></g></g></g></svg>